<svg xmlns="http://www.w3.org/2000/svg" xml:space="preserve" style="fill-rule:evenodd;clip-rule:evenodd;stroke-linejoin:round;stroke-miterlimit:2" viewBox="0 0 16 15"><path d="M442.181 378.04a.785.785 0 0 1 1.493 0l1.317 4.058a.6.6 0 0 0 .566.411l4.267-.002a.784.784 0 0 1 .461 1.42l-3.452 2.507a.6.6 0 0 0-.217.665l1.32 4.057a.786.786 0 0 1-1.208.878l-3.45-2.509a.595.595 0 0 0-.7 0l-3.451 2.509a.783.783 0 0 1-1.207-.878l1.319-4.057a.59.59 0 0 0-.216-.665l-3.452-2.507a.785.785 0 0 1 .461-1.42l4.266.002a.59.59 0 0 0 .566-.411z" style="fill:#f6bb06" transform="translate(-442.417 -383.715)scale(1.01647)"/></svg>